<svg width="18" height="18" viewBox="0 0 18 18" fill="none" xmlns="http://www.w3.org/2000/svg">
<path fill-rule="evenodd" clip-rule="evenodd" d="M9 1C7.8954 1 7 1.89543 7 3C7 4.10457 7.8954 5 9 5C10.1046 5 11 4.10457 11 3C11 1.89543 10.1046 1 9 1ZM6 3C6 1.34315 7.3431 0 9 0C10.6569 0 12 1.34315 12 3C12 4.11042 11.3967 5.07994 10.5 5.59865V6.19666L17.4294 9.8056C17.8337 10.0282 18 10.4524 18 10.8186C18 10.8549 17.9984 10.8918 17.995 10.9291C17.9983 10.9522 18 10.9759 18 11V12.9C18 13.454 17.6946 13.9629 17.2058 14.2235L10.7248 17.6797L10.6958 17.6908C9.6199 18.1031 8.3801 18.1031 7.3042 17.6908L7.2752 17.6797L0.79419 14.2235C0.30536 13.9629 1.00136e-05 13.454 1.00136e-05 12.9V11C1.00136e-05 10.9759 0.0017101 10.9523 0.0049901 10.9291C0.0016401 10.8919 0 10.855 0 10.8186C0 10.4524 0.16633 10.0284 0.57071 9.8057L0.58081 9.8002L7.5 6.19666V5.59865C6.6033 5.07994 6 4.11042 6 3ZM8.5 5.95852V10.77C8.5273 10.7907 8.5575 10.8124 8.5899 10.834C8.7524 10.9424 8.9003 11 9 11C9.0997 11 9.2476 10.9424 9.4101 10.834C9.4425 10.8124 9.4727 10.7907 9.5 10.77V5.95852C9.3374 5.9858 9.1704 6 9 6C8.8296 6 8.6626 5.9858 8.5 5.95852ZM10 11C10.3536 11.3536 10.3535 11.3536 10.3534 11.3537L10.3518 11.3553L10.3493 11.3578L10.342 11.3649C10.3361 11.3706 10.3283 11.378 10.3187 11.387C10.2995 11.405 10.2727 11.4293 10.2395 11.4578C10.1735 11.5143 10.0792 11.5898 9.9649 11.666C9.7524 11.8076 9.4003 12 9 12C8.5997 12 8.2476 11.8076 8.0351 11.666C7.9208 11.5898 7.8265 11.5143 7.7605 11.4578C7.7273 11.4293 7.7005 11.405 7.6813 11.387C7.6717 11.378 7.6639 11.3706 7.658 11.3649L7.6507 11.3578L7.6482 11.3553L7.6472 11.3543C7.6471 11.3542 7.6464 11.3536 8 11L7.6464 11.3536C7.5527 11.2598 7.5 11.1326 7.5 11V7.3242L1.05116 10.6829C1.03774 10.6916 1 10.7288 1 10.8186C1 10.9128 1.04156 10.9491 1.05297 10.9554L7.8537 14.6992C8.5823 15.1003 9.4177 15.1003 10.1463 14.6992L16.947 10.9554C16.9584 10.9491 17 10.9128 17 10.8186C17 10.7288 16.9623 10.6916 16.9488 10.6829L10.5 7.3242V11C10.5 11.1326 10.4471 11.26 10.3534 11.3537L10 11ZM1.00001 12.0678V12.9C1.00001 13.0846 1.10179 13.2543 1.26473 13.3412L7.6901 16.7676C8.5199 17.0775 9.4801 17.0775 10.31 16.7676L16.7353 13.3412C16.8982 13.2543 17 13.0846 17 12.9V12.0678L10.6286 15.5752C9.5997 16.1416 8.4003 16.1416 7.3714 15.5752L1.00001 12.0678ZM3.56929 10.1992C3.83331 10.0672 4.16307 10 4.5 10C4.83693 10 5.16669 10.0672 5.43071 10.1992C5.66483 10.3163 6 10.5705 6 11C6 11.4295 5.66483 11.6837 5.43071 11.8008C5.16669 11.9328 4.83693 12 4.5 12C4.16307 12 3.83331 11.9328 3.56929 11.8008C3.33517 11.6837 3 11.4295 3 11C3 10.5705 3.33517 10.3163 3.56929 10.1992Z" fill="white"/>
</svg>
